<svg version="1.1" id="logo" xmlns="http://www.w3.org/2000/svg" xmlns:xlink="http://www.w3.org/1999/xlink" x="0px" y="0px"
width="400px" height="120px" viewBox="0 0 800 240" style="enable-background:new 0 0 800 240;" xml:space="preserve">
<style type="text/css">
.st0{fill:#fff;}
</style>
<path class="st0" d="M760.7,230c-10.4,0-19-2.2-25.5-6.5s-11.7-10.2-15.6-17.5c-3.9-7.3-5.8-15.8-5.8-25.4
c0-14.3,4.1-26.2,12.3-35.1c8.2-9,19-13.6,32-13.6c12.6,0,22.8,4.4,30.3,13.2c7.5,8.7,11.3,20.6,11.7,35.3v1.1
c-0.4,0.9-1.1,1.5-1.9,1.9h-65c0.5,8.4,3.6,15.4,9,20.6c5.5,5.2,12.7,7.9,21.4,7.9c11.5,0,22.2-3.4,32-10c0.3-0.2,0.6-0.3,0.9-0.3
c0.2,0,0.5,0.1,0.7,0.2c0.5,0.3,0.8,0.8,0.8,1.4v15.2c0,0.5-0.3,1-0.7,1.3c-5.6,3.6-11.2,6.3-16.7,7.9
C775,229.2,768.3,230,760.7,230z M780.5,171.5c-0.5-7.2-2.7-12.8-6.6-16.7c-3.9-3.9-9.2-5.9-15.8-5.9s-12.1,2-16.3,6
c-4.1,3.9-6.9,9.5-8.2,16.7h46.9V171.5z"/>
<path class="st0" d="M69.9,229.5c-0.7,0-1.3-0.3-1.8-0.7L22,181.7c-0.9-0.9-0.9-2.4-0.1-3.4l40.8-45c0.5-0.5,1.1-0.8,1.8-0.8h16.8
c0.6,0,1.3,0.2,1.8,0.6c1,1,1,2.5,0.2,3.5L45.5,180L91,225.2c0.5,0.5,0.8,1.1,0.8,1.8c0,1.5-1.1,2.5-2.5,2.5H69.9z M0,227.1V85
c0-1.4,1.1-2.5,2.5-2.5h15c1.4,0,2.5,1.1,2.5,2.5v142.1c0,1.4-1.1,2.5-2.5,2.5h-15C1.1,229.5,0,228.4,0,227.1z"/>
<path class="st0" d="M198.3,229.5c-1.4,0-2.5-1.1-2.5-2.5v-52.8c0-9.9-1.5-16.7-4.5-21c-2.9-4.1-7.9-6.2-14.8-6.2
c-8.8,0-16.5,4.5-22.7,13.3V227c0,1.4-1.1,2.5-2.5,2.5h-15c-1.4,0-2.5-1.1-2.5-2.5v-92c0-1.4,1.1-2.5,2.5-2.5h15
c1.4,0,2.5,1.1,2.5,2.5v9.3c8.5-9.1,18.2-13.7,28.9-13.7c6.1,0,11.8,1.6,17,4.7c5.2,3.1,9.2,7.5,12,12.9c2.7,5.4,4.1,14.1,4.1,25.9
V227c0,1.4-1.1,2.5-2.5,2.5H198.3z"/>
<path class="st0" d="M504.2,231.5c-1,0-1.9-0.6-2.3-1.5l-27.7-65.4L446.9,230c-0.4,0.9-1.3,1.5-2.3,1.5h-3.3c-1,0-1.9-0.6-2.3-1.5
l-41-94c-0.3-0.8-0.3-1.6,0.2-2.3s1.2-1.1,2.1-1.1H416c1,0,1.9,0.6,2.3,1.5l24.4,56.7l23.8-56.7c0.4-0.9,1.3-1.5,2.3-1.5H480
c1,0,1.9,0.6,2.3,1.5l23.5,56.6l24.3-56.7c0.4-0.9,1.3-1.5,2.3-1.5h15.7c0.8,0,1.6,0.4,2.1,1.1c0.5,0.7,0.5,1.6,0.2,2.3l-40.7,94
c-0.4,0.9-1.3,1.5-2.3,1.5L504.2,231.5L504.2,231.5z"/>
<path class="st0" d="M624.2,231.5c-6.3,0-13-0.7-20-2c-6.3-1.2-11.5-2.7-15.4-4.5c-0.9-0.4-1.5-1.3-1.5-2.3V85
c0-1.4,1.1-2.5,2.5-2.5h15c1.4,0,2.5,1.1,2.5,2.5v54.3c8.2-5.8,17.1-8.7,26.5-8.7c12.6,0,22.6,4.6,30.6,14
c7.9,9.3,11.9,21.3,11.9,35.8c0,15.6-4.8,28.1-14.2,37.3C652.7,226.9,639.9,231.5,624.2,231.5z M605.3,210.1
c6.4,1.9,13,2.9,19.8,2.9c8.3,0,15.2-3,20.5-8.9s8-13.7,8-23c0-9.5-2.5-17.3-7.4-23.2s-11.4-8.9-19.3-8.9c-7,0-14.2,3.1-21.4,9.3
L605.3,210.1L605.3,210.1z"/>
<path class="st0" d="M450.6,48.6L399.9,8.4c-1.8-1.5-4.3-1.8-6.5-1c-2.2,0.9-3.7,2.8-4.1,5.2l-9.4,64c-0.3,2.3,0.6,4.7,2.4,6.1
c1.8,1.5,4.3,1.8,6.5,1l60.1-23.9c2.2-0.9,3.7-2.8,4.1-5.2C453.4,52.4,452.4,50,450.6,48.6z"/>
<path class="st0" d="M368.7,120.9c-1.3,0-2.6-0.4-3.6-1.2l-12.5-9c-1.3-1-2.2-2.4-2.5-4s0.1-3.3,1.1-4.6l9-12.5c1.2-1.6,3-2.6,5-2.6
c1.3,0,2.6,0.4,3.6,1.2l12.5,9c1.3,1,2.2,2.4,2.5,4s-0.1,3.3-1.1,4.6l-9,12.5C372.5,119.9,370.7,120.9,368.7,120.9z"/>
<path class="st0" d="M360.6,179.2c-0.3-13-5.4-25.2-14-34.7l7.2-9.7c2.8-3.4,2.2-8.5-1.2-11.3c-3.4-2.8-8.5-2.2-11.2,1.2l-11.1,15.1
c-0.3,0.3-0.6,0.5-0.8,0.8c-3,3.6-2.5,8.9,1.1,11.9c8.1,6.7,12.9,16.6,13.2,27.1c0.5,20-15.3,36.7-35.3,37.2
c-9.7,0.3-18.9-3.3-25.9-10s-11-15.7-11.2-25.4c-0.5-20,15.3-36.7,35.3-37.2c4.7-0.1,8.4-4,8.2-8.7c-0.1-4.7-4-8.4-8.7-8.2
c-29.3,0.7-52.5,25.2-51.8,54.5c0.4,14.2,6.2,27.4,16.5,37.2c10,9.5,22.9,14.7,36.6,14.7c0.5,0,0.9,0,1.4,0
c14.2-0.4,27.4-6.2,37.2-16.5C355.8,206.9,360.9,193.4,360.6,179.2z"/>
</svg>