<?xml version="1.0" encoding="UTF-8"?>
<svg width="16px" height="16px" viewBox="0 0 16 16" version="1.1" xmlns="http://www.w3.org/2000/svg" xmlns:xlink="http://www.w3.org/1999/xlink">
    <title>Group</title>
    <defs>
        <circle id="path-1" cx="8" cy="8" r="8"></circle>
    </defs>
    <g id="Symbols" stroke="none" stroke-width="1" fill="none" fill-rule="evenodd">
        <g id="Icon-/-Tableheader-/-?">
            <g id="Group">
                <mask id="mask-2" fill="white">
                    <use xlink:href="#path-1"></use>
                </mask>
                <use id="Mask" fill="#FFFFFF" xlink:href="#path-1"></use>
                <g id="✱-/-Color-/-Icons-/-Primary-or-Secondary" mask="url(#mask-2)" fill="#455A64">
                    <g id="✱-/-Color-/-Primary-/-700">
                        <rect id="Rectangle-13" x="0" y="0" width="16" height="16"></rect>
                    </g>
                </g>
                <polygon id="?" fill="#FFFFFF" points="6.89473684 13 6.89473684 10.7614379 8.84688995 10.7614379 8.84688995 13"></polygon>
                <path d="M8.64593301,9.78104575 L7.08133971,9.78104575 C7.08133971,9.20370082 7.16746325,8.69989322 7.33971292,8.26960784 C7.51196258,7.83932247 7.86124139,7.40087369 8.38755981,6.95424837 C8.68421201,6.70370245 8.8803823,6.50762598 8.97607656,6.36601307 C9.07177081,6.22440016 9.11961722,6.02832369 9.11961722,5.77777778 C9.11961722,5.44008546 9.01674744,5.17048031 8.81100478,4.96895425 C8.60526213,4.76742819 8.32536062,4.66666667 7.97129187,4.66666667 C7.31100148,4.66666667 6.8708145,5.05881961 6.6507177,5.84313725 L5,5.35294118 C5.45933244,3.78430588 6.46410708,3 8.01435407,3 C8.79904699,3 9.49281995,3.22330931 10.0956938,3.66993464 C10.6985676,4.11655997 11,4.7538085 11,5.58169935 C11,6.4422701 10.6698598,7.14487745 10.0095694,7.68954248 C9.47368153,8.12527451 9.11244112,8.48202475 8.92583732,8.75980392 C8.73923352,9.03758309 8.64593301,9.37799363 8.64593301,9.78104575 Z" id="?" fill="#FFFFFF"></path>
            </g>
        </g>
    </g>
</svg>
